<svg viewBox="0 0 1200 3000" xmlns="http://www.w3.org/2000/svg" preserveAspectRatio="xMidYMid meet">
  <!-- Vertical ribbon flowing from top to bottom with gentle wave -->
  <path d="M 500 0 Q 580 200, 500 400 Q 420 600, 500 800 Q 580 1000, 500 1200 Q 420 1400, 500 1600 Q 580 1800, 500 2000 Q 420 2200, 500 2400 Q 580 2600, 500 2800 Q 580 2900, 500 3000 L 700 3000 Q 620 2900, 700 2800 Q 780 2600, 700 2400 Q 620 2200, 700 2000 Q 780 1800, 700 1600 Q 620 1400, 700 1200 Q 780 1000, 700 800 Q 620 600, 700 400 Q 620 200, 700 0 Z" fill="#6B7FA0"/>
</svg>
